<?xml version="1.0" encoding="utf-8"?>
<!-- Generator: Adobe Illustrator 25.3.0, SVG Export Plug-In . SVG Version: 6.00 Build 0)  -->
<svg version="1.1" id="Capa_1" xmlns="http://www.w3.org/2000/svg" xmlns:xlink="http://www.w3.org/1999/xlink" x="0px" y="0px"
	 viewBox="0 0 1366 768" style="enable-background:new 0 0 1366 768;" xml:space="preserve">
<style type="text/css">
	.st0{fill:url(#SVGID_1_);}
	.st1{fill:url(#SVGID_2_);}
	.st2{fill:url(#SVGID_3_);}
	.st3{opacity:0.57;fill:url(#SVGID_4_);}
	.st4{fill:url(#SVGID_5_);}
	.st5{fill:url(#SVGID_6_);}
	.st6{fill:url(#SVGID_7_);}
	.st7{fill:url(#SVGID_8_);}
	.st8{fill:url(#SVGID_9_);}
	.st9{fill:url(#SVGID_10_);}
	.st10{fill:url(#SVGID_11_);}
	.st11{fill:url(#SVGID_12_);}
	.st12{fill:url(#SVGID_13_);}
	.st13{fill:url(#SVGID_14_);}
</style>
<g>
	<g>
		<linearGradient id="SVGID_1_" gradientUnits="userSpaceOnUse" x1="-127.4858" y1="669.1274" x2="-130.1142" y2="670.4727">
			<stop  offset="2.097916e-03" style="stop-color:#FEECF1;stop-opacity:0.9"/>
			<stop  offset="0.9484" style="stop-color:#F347BA;stop-opacity:0.8"/>
		</linearGradient>
		<path class="st0" d="M-128.8,671.3c1.93,0,1.93-3,0-3C-130.73,668.3-130.73,671.3-128.8,671.3L-128.8,671.3z"/>
	</g>
</g>
<linearGradient id="SVGID_2_" gradientUnits="userSpaceOnUse" x1="1056.1199" y1="139.5907" x2="-153.4361" y2="758.683">
	<stop  offset="2.097916e-03" style="stop-color:#FEECF1;stop-opacity:0.9"/>
	<stop  offset="0.9484" style="stop-color:#F347BA;stop-opacity:0.8"/>
</linearGradient>
<path class="st1" d="M57,624c10.16-3.53,47.79-16.6,85-2c29.9,11.73,40.58,33.89,78,45c19.31,5.73,36.32,5.73,47,5
	c9.32-2.25,23.82-6.22,41-13c19.12-7.55,23.14-11.3,40-17c14.51-4.9,27.87-9.41,46-9.53c26.25-0.17,45.59,8.99,49.77,11.05
	c14.07,6.92,15.31,11.57,31.23,20.48c15.37,8.6,29.46,12.8,39,15c8.76,0.2,21.77-0.57,36-6c11.61-4.43,16.06-8.92,26-15
	c25.22-15.43,49.91-19.17,62-21c15.37-2.33,31.81-4.84,52,0c36.26,8.68,60.54,35.25,63,38c11.97,13.42,16.13,24.37,32,32
	c10.19,4.9,20.04,5.94,27,6c7.43,0.5,18.13,0.12,29-5c14.85-7,16.61-16.53,34-32c17.11-15.22,33.67-22.24,38-24
	c3.87-1.57,19.28-7.66,46-9c14.14-0.71,40.64-0.55,79,11c26.9,8.1,26.17,11.72,83,36c49.73,21.24,62.75,23.79,71,25
	c28.47,4.18,52.78,0.15,69-4c17.35-5.41,42.48-15.95,64-38c27.66-28.35,34.29-60.31,41-84.38l0-255.42c0,0,2.5-190.7-349.5-186.7
	S683,1,683,1H0v662.87C15.62,645.85,34.84,631.7,57,624z"/>
<linearGradient id="SVGID_3_" gradientUnits="userSpaceOnUse" x1="124.0297" y1="511.6324" x2="-50.5834" y2="601.0054" gradientTransform="matrix(-6.040713e-03 -1 1 -6.040713e-03 -517.4422 536.6741)">
	<stop  offset="2.097916e-03" style="stop-color:#FEECF1;stop-opacity:0.9"/>
	<stop  offset="0.9484" style="stop-color:#8B00A2;stop-opacity:0.8"/>
</linearGradient>
<path class="st2" d="M1.14,585.8c54.68-0.33,98.71-48.06,98.36-106.6c-0.35-58.54-44.96-105.73-99.64-105.4"/>
<linearGradient id="SVGID_4_" gradientUnits="userSpaceOnUse" x1="500.2506" y1="1117.2289" x2="304.8747" y2="1217.229" gradientTransform="matrix(-1 7.285734e-03 -7.285734e-03 -1 1744.3484 1472.0907)">
	<stop  offset="2.097916e-03" style="stop-color:#FEECF1;stop-opacity:0.9"/>
	<stop  offset="0.9484" style="stop-color:#8B00A2;stop-opacity:0.8"/>
</linearGradient>
<path class="st3" d="M1366,469.03c-9.02,0-15.91-0.12-19.11-0.46c-14-1.46-25.9-2.82-38.89-10.12c-9.6-5.39-16.2-12-19.68-15.92
	c-3.34-3.76-6.34-7.87-8.94-12.29l-52.59-89.58c-14.05-23.92-14.26-53.52-0.57-77.64l51.28-90.33
	c13.69-24.12,39.22-39.11,66.95-39.31c2.22-0.05,10.45-0.15,21.55-0.27"/>
<linearGradient id="SVGID_5_" gradientUnits="userSpaceOnUse" x1="1064.1084" y1="587.3596" x2="986.9235" y2="626.8655" gradientTransform="matrix(0.8358 0.549 -0.549 0.8358 511.6337 -457.9357)">
	<stop  offset="2.097914e-03" style="stop-color:#FFFFFF;stop-opacity:0.9"/>
	<stop  offset="1" style="stop-color:#FFFFFF"/>
</linearGradient>
<polygon class="st4" points="985.04,675.67 997.58,683.9 1085.96,549.33 1073.42,541.1 "/>
<linearGradient id="SVGID_6_" gradientUnits="userSpaceOnUse" x1="392.0018" y1="985.5042" x2="319.9699" y2="1022.3726" gradientTransform="matrix(0.5365 0.4205 -0.3588 0.4579 406.2651 -5.0126)">
	<stop  offset="2.097914e-03" style="stop-color:#FFFFFF;stop-opacity:0.9"/>
	<stop  offset="1" style="stop-color:#FFFFFF"/>
</linearGradient>
<path class="st5" d="M208.13,641.19L208.13,641.19c2.22,1.74,5.44,1.35,7.18-0.87l51.46-65.67c1.74-2.22,1.35-5.44-0.87-7.18l0,0
	c-2.22-1.74-5.44-1.35-7.18,0.87l-51.46,65.67C205.52,636.24,205.91,639.45,208.13,641.19z"/>
<linearGradient id="SVGID_7_" gradientUnits="userSpaceOnUse" x1="409.6405" y1="1047.7689" x2="337.6086" y2="1084.6373" gradientTransform="matrix(-0.4205 0.5365 -0.4579 -0.3588 881.2903 787.4584)">
	<stop  offset="2.097914e-03" style="stop-color:#FFFFFF;stop-opacity:0.9"/>
	<stop  offset="1" style="stop-color:#FFFFFF"/>
</linearGradient>
<path class="st6" d="M199.16,576.45L199.16,576.45c-1.74,2.22-1.35,5.44,0.87,7.18l65.67,51.46c2.22,1.74,5.44,1.35,7.18-0.87l0,0
	c1.74-2.22,1.35-5.44-0.87-7.18l-65.67-51.46C204.12,573.84,200.9,574.23,199.16,576.45z"/>
<linearGradient id="SVGID_8_" gradientUnits="userSpaceOnUse" x1="840.0644" y1="107.6596" x2="735.2228" y2="161.3212" gradientTransform="matrix(0.6799 0.0491 -0.0419 0.5802 98.6707 -28.3726)">
	<stop  offset="2.097914e-03" style="stop-color:#FFFFFF;stop-opacity:0.9"/>
	<stop  offset="1" style="stop-color:#FFFFFF"/>
</linearGradient>
<polygon class="st7" points="607.86,133.11 645.71,92.53 649.25,43.56 611.4,84.14 "/>
<linearGradient id="SVGID_9_" gradientUnits="userSpaceOnUse" x1="285.2231" y1="966.4559" x2="247.456" y2="985.7864" gradientTransform="matrix(0.3716 -0.5715 0.4877 0.3171 -494.998 210.9799)">
	<stop  offset="2.097914e-03" style="stop-color:#FFFFFF;stop-opacity:0.9"/>
	<stop  offset="1" style="stop-color:#FFFFFF"/>
</linearGradient>
<path class="st8" d="M100.59,381.7L100.59,381.7c0.81-1.24,0.46-2.9-0.79-3.71l-36.67-23.85c-1.24-0.81-2.9-0.46-3.71,0.79h0
	c-0.81,1.24-0.46,2.9,0.79,3.71l36.67,23.85C98.12,383.3,99.78,382.94,100.59,381.7z"/>
<linearGradient id="SVGID_10_" gradientUnits="userSpaceOnUse" x1="287.5413" y1="992.2544" x2="249.7743" y2="1011.5848" gradientTransform="matrix(0.5543 0.3967 -0.3385 0.4731 270.2664 -212.2245)">
	<stop  offset="2.097914e-03" style="stop-color:#FFFFFF;stop-opacity:0.9"/>
	<stop  offset="1" style="stop-color:#FFFFFF"/>
</linearGradient>
<path class="st9" d="M65.72,388.28L65.72,388.28c1.2,0.86,2.88,0.58,3.74-0.62l25.46-35.57c0.86-1.2,0.58-2.88-0.62-3.74l0,0
	c-1.2-0.86-2.88-0.58-3.74,0.62L65.1,384.54C64.24,385.75,64.51,387.42,65.72,388.28z"/>
<linearGradient id="SVGID_11_" gradientUnits="userSpaceOnUse" x1="366.9739" y1="1243.7411" x2="331.2444" y2="1262.0287" gradientTransform="matrix(-0.4205 0.5365 -0.4579 -0.3588 881.2903 787.4584)">
	<stop  offset="2.097914e-03" style="stop-color:#FFFFFF;stop-opacity:0.9"/>
	<stop  offset="1" style="stop-color:#FFFFFF"/>
</linearGradient>
<path class="st10" d="M142.57,510.87L142.57,510.87c-0.86,1.1-0.67,2.7,0.43,3.56l32.57,25.53c1.1,0.86,2.7,0.67,3.56-0.43l0,0
	c0.86-1.1,0.67-2.7-0.43-3.56l-32.57-25.53C145.03,509.57,143.44,509.76,142.57,510.87z"/>
<linearGradient id="SVGID_12_" gradientUnits="userSpaceOnUse" x1="157.403" y1="1128.2513" x2="121.6735" y2="1146.5389" gradientTransform="matrix(-0.5365 -0.4205 0.3588 -0.4579 -172.4106 1104.6292)">
	<stop  offset="2.097914e-03" style="stop-color:#FFFFFF;stop-opacity:0.9"/>
	<stop  offset="1" style="stop-color:#FFFFFF"/>
</linearGradient>
<path class="st11" d="M175.18,506.91L175.18,506.91c-1.1-0.86-2.7-0.67-3.56,0.43l-25.53,32.57c-0.86,1.1-0.67,2.7,0.43,3.56l0,0
	c1.1,0.86,2.7,0.67,3.56-0.43l25.53-32.57C176.48,509.37,176.28,507.78,175.18,506.91z"/>
<linearGradient id="SVGID_13_" gradientUnits="userSpaceOnUse" x1="1094.4507" y1="611.6977" x2="1017.2659" y2="651.2036" gradientTransform="matrix(0.8358 0.549 -0.549 0.8358 511.6337 -457.9357)">
	<stop  offset="2.097914e-03" style="stop-color:#FFFFFF;stop-opacity:0.9"/>
	<stop  offset="1" style="stop-color:#FFFFFF"/>
</linearGradient>
<polygon class="st12" points="997.04,712.67 1009.58,720.9 1097.96,586.33 1085.42,578.1 "/>
<linearGradient id="SVGID_14_" gradientUnits="userSpaceOnUse" x1="1126.9396" y1="646.59" x2="1049.7548" y2="686.0959" gradientTransform="matrix(0.8358 0.549 -0.549 0.8358 511.6337 -457.9357)">
	<stop  offset="2.097914e-03" style="stop-color:#FFFFFF;stop-opacity:0.9"/>
	<stop  offset="1" style="stop-color:#FFFFFF"/>
</linearGradient>
<polygon class="st13" points="1005.04,759.67 1017.58,767.9 1105.96,633.33 1093.42,625.1 "/>
</svg>
